<svg width="832" height="721" viewBox="0 0 832 721" fill="none" xmlns="http://www.w3.org/2000/svg">
<path d="M464.286 580.96C585.315 580.96 683.429 482.788 683.429 361.687C683.429 240.586 585.315 142.414 464.286 142.414C343.256 142.414 245.143 240.586 245.143 361.687C245.143 424.697 271.704 481.499 314.235 521.496H178.286C112.642 521.496 23.1714 490.577 0 383.986V402.568C0 501.091 79.8215 580.96 178.286 580.96H460.571V580.929C461.807 580.95 463.045 580.96 464.286 580.96Z" fill="url(#paint0_linear_2038_992)"/>
<path d="M468 486.861C535.694 486.861 590.571 431.951 590.571 364.216C590.571 296.482 535.694 241.572 468 241.572C400.306 241.572 345.429 296.482 345.429 364.216C345.429 431.951 400.306 486.861 468 486.861Z" stroke="white" stroke-width="20"/>
<path d="M468 453.412C517.232 453.412 557.143 413.478 557.143 364.216C557.143 314.955 517.232 275.021 468 275.021C418.768 275.021 378.857 314.955 378.857 364.216C378.857 413.478 418.768 453.412 468 453.412Z" fill="#FFFEFF"/>
<path fill-rule="evenodd" clip-rule="evenodd" d="M451.676 1.13765C269.622 9.38794 120.533 155.643 108.546 337.15C105.549 380.652 110.793 421.903 122.031 460.905C133.269 499.906 177.185 495.019 177.185 495.019L247.896 494.656C223.922 454.904 210.436 408.403 211.934 358.151C214.931 220.896 330.307 109.892 468.159 111.392C606.01 113.641 716.891 225.396 716.891 364.151C716.891 502.906 603.763 616.911 464.413 616.911C325.062 616.911 460.667 616.911 459.168 616.911H214.931C284.606 685.913 381.252 726.415 487.637 720.414C662.2 711.414 818.785 554.658 827.773 379.902C839.013 166.144 664.448 -9.36274 451.676 0.387604V1.13765Z" fill="white"/>
<defs>
<linearGradient id="paint0_linear_2038_992" x1="404.857" y1="142.414" x2="404.857" y2="609.505" gradientUnits="userSpaceOnUse">
<stop stop-color="#210F44"/>
<stop offset="1" stop-color="#5325AA"/>
</linearGradient>
</defs>
</svg>
