<svg width="318" height="38" viewBox="0 0 318 38" fill="none" xmlns="http://www.w3.org/2000/svg">
<rect y="38" width="76" height="2.375" transform="rotate(-90 0 38)" fill="white" fill-opacity="0.1"/>
<rect x="4.375" y="38" width="76" height="2.375" transform="rotate(-90 4.375 38)" fill="white" fill-opacity="0.1"/>
<rect x="8.75" y="38" width="76" height="2.375" transform="rotate(-90 8.75 38)" fill="white" fill-opacity="0.1"/>
<rect x="13.125" y="38" width="76" height="2.375" transform="rotate(-90 13.125 38)" fill="white" fill-opacity="0.1"/>
<rect x="17.5" y="38" width="76" height="2.375" transform="rotate(-90 17.5 38)" fill="white" fill-opacity="0.1"/>
<rect x="21.875" y="38" width="76" height="2.375" transform="rotate(-90 21.875 38)" fill="white" fill-opacity="0.1"/>
<rect x="26.25" y="38" width="76" height="2.375" transform="rotate(-90 26.25 38)" fill="white" fill-opacity="0.1"/>
<rect x="30.625" y="38" width="76" height="2.375" transform="rotate(-90 30.625 38)" fill="white" fill-opacity="0.1"/>
<rect x="35" y="38" width="76" height="2.375" transform="rotate(-90 35 38)" fill="white" fill-opacity="0.1"/>
<rect x="39.375" y="38" width="76" height="2.375" transform="rotate(-90 39.375 38)" fill="white" fill-opacity="0.1"/>
<rect x="43.75" y="38" width="76" height="2.375" transform="rotate(-90 43.75 38)" fill="white" fill-opacity="0.1"/>
<rect x="48.125" y="38" width="76" height="2.375" transform="rotate(-90 48.125 38)" fill="white" fill-opacity="0.1"/>
<rect x="52.5" y="38" width="76" height="2.375" transform="rotate(-90 52.5 38)" fill="white" fill-opacity="0.1"/>
<rect x="56.875" y="38" width="76" height="2.375" transform="rotate(-90 56.875 38)" fill="white" fill-opacity="0.1"/>
<rect x="61.25" y="38" width="76" height="2.375" transform="rotate(-90 61.25 38)" fill="white" fill-opacity="0.1"/>
<rect x="65.625" y="38" width="76" height="2.375" transform="rotate(-90 65.625 38)" fill="white" fill-opacity="0.1"/>
<rect x="70" y="38" width="76" height="2.375" transform="rotate(-90 70 38)" fill="white" fill-opacity="0.1"/>
<rect x="74.375" y="38" width="76" height="2.375" transform="rotate(-90 74.375 38)" fill="white" fill-opacity="0.1"/>
<rect x="78.75" y="38" width="76" height="2.375" transform="rotate(-90 78.75 38)" fill="white" fill-opacity="0.1"/>
<rect x="83.125" y="38" width="76" height="2.375" transform="rotate(-90 83.125 38)" fill="white" fill-opacity="0.1"/>
<rect x="87.5" y="38" width="76" height="2.375" transform="rotate(-90 87.5 38)" fill="white" fill-opacity="0.1"/>
<rect x="91.875" y="38" width="76" height="2.375" transform="rotate(-90 91.875 38)" fill="white" fill-opacity="0.1"/>
<rect x="96.25" y="38" width="76" height="2.375" transform="rotate(-90 96.25 38)" fill="white" fill-opacity="0.1"/>
<rect x="100.625" y="38" width="76" height="2.375" transform="rotate(-90 100.625 38)" fill="white" fill-opacity="0.1"/>
<rect x="105" y="38" width="76" height="2.375" transform="rotate(-90 105 38)" fill="white" fill-opacity="0.1"/>
<rect x="109.375" y="38" width="76" height="2.375" transform="rotate(-90 109.375 38)" fill="white" fill-opacity="0.1"/>
<rect x="113.75" y="38" width="76" height="2.375" transform="rotate(-90 113.75 38)" fill="white" fill-opacity="0.1"/>
<rect x="118.125" y="38" width="76" height="2.375" transform="rotate(-90 118.125 38)" fill="white" fill-opacity="0.1"/>
<rect x="122.5" y="38" width="76" height="2.375" transform="rotate(-90 122.5 38)" fill="white" fill-opacity="0.1"/>
<rect x="126.875" y="38" width="76" height="2.375" transform="rotate(-90 126.875 38)" fill="white" fill-opacity="0.1"/>
<rect x="131.25" y="38" width="76" height="2.375" transform="rotate(-90 131.25 38)" fill="white" fill-opacity="0.1"/>
<rect x="135.625" y="38" width="76" height="2.375" transform="rotate(-90 135.625 38)" fill="white" fill-opacity="0.1"/>
<rect x="140" y="38" width="76" height="2.375" transform="rotate(-90 140 38)" fill="white" fill-opacity="0.1"/>
<rect x="144.375" y="38" width="76" height="2.375" transform="rotate(-90 144.375 38)" fill="white" fill-opacity="0.1"/>
<rect x="148.75" y="38" width="76" height="2.375" transform="rotate(-90 148.75 38)" fill="white" fill-opacity="0.1"/>
<rect x="153.125" y="38" width="76" height="2.375" transform="rotate(-90 153.125 38)" fill="white" fill-opacity="0.1"/>
<rect x="157.5" y="38" width="76" height="2.375" transform="rotate(-90 157.5 38)" fill="white" fill-opacity="0.1"/>
<rect x="161.875" y="38" width="76" height="2.375" transform="rotate(-90 161.875 38)" fill="white" fill-opacity="0.1"/>
<rect x="166.25" y="38" width="76" height="2.375" transform="rotate(-90 166.25 38)" fill="white" fill-opacity="0.1"/>
<rect x="170.625" y="38" width="76" height="2.375" transform="rotate(-90 170.625 38)" fill="white" fill-opacity="0.1"/>
<rect x="175" y="38" width="76" height="2.375" transform="rotate(-90 175 38)" fill="white" fill-opacity="0.1"/>
<rect x="179.375" y="38" width="76" height="2.375" transform="rotate(-90 179.375 38)" fill="white" fill-opacity="0.1"/>
<rect x="183.75" y="38" width="76" height="2.375" transform="rotate(-90 183.75 38)" fill="white" fill-opacity="0.1"/>
<rect x="188.125" y="38" width="76" height="2.375" transform="rotate(-90 188.125 38)" fill="white" fill-opacity="0.1"/>
<rect x="192.5" y="38" width="76" height="2.375" transform="rotate(-90 192.5 38)" fill="white" fill-opacity="0.1"/>
<rect x="196.875" y="38" width="76" height="2.375" transform="rotate(-90 196.875 38)" fill="white" fill-opacity="0.1"/>
<rect x="201.25" y="38" width="76" height="2.375" transform="rotate(-90 201.25 38)" fill="white" fill-opacity="0.1"/>
<rect x="205.625" y="38" width="76" height="2.375" transform="rotate(-90 205.625 38)" fill="white" fill-opacity="0.1"/>
<rect x="210" y="38" width="76" height="2.375" transform="rotate(-90 210 38)" fill="white" fill-opacity="0.1"/>
<rect x="214.375" y="38" width="76" height="2.375" transform="rotate(-90 214.375 38)" fill="white" fill-opacity="0.1"/>
<rect x="218.75" y="38" width="76" height="2.375" transform="rotate(-90 218.75 38)" fill="white" fill-opacity="0.1"/>
<rect x="223.125" y="38" width="76" height="2.375" transform="rotate(-90 223.125 38)" fill="white" fill-opacity="0.1"/>
<rect x="227.5" y="38" width="76" height="2.375" transform="rotate(-90 227.5 38)" fill="white" fill-opacity="0.1"/>
<rect x="231.875" y="38" width="76" height="2.375" transform="rotate(-90 231.875 38)" fill="white" fill-opacity="0.1"/>
<rect x="236.25" y="38" width="76" height="2.375" transform="rotate(-90 236.25 38)" fill="white" fill-opacity="0.1"/>
<rect x="240.625" y="38" width="76" height="2.375" transform="rotate(-90 240.625 38)" fill="white" fill-opacity="0.1"/>
<rect x="245" y="38" width="76" height="2.375" transform="rotate(-90 245 38)" fill="white" fill-opacity="0.1"/>
<rect x="249.375" y="38" width="76" height="2.375" transform="rotate(-90 249.375 38)" fill="white" fill-opacity="0.1"/>
<rect x="253.75" y="38" width="76" height="2.375" transform="rotate(-90 253.75 38)" fill="white" fill-opacity="0.1"/>
<rect x="258.125" y="38" width="76" height="2.375" transform="rotate(-90 258.125 38)" fill="white" fill-opacity="0.1"/>
<rect x="262.5" y="38" width="76" height="2.375" transform="rotate(-90 262.5 38)" fill="white" fill-opacity="0.1"/>
<rect x="266.875" y="38" width="76" height="2.375" transform="rotate(-90 266.875 38)" fill="white" fill-opacity="0.1"/>
<rect x="271.25" y="38" width="76" height="2.375" transform="rotate(-90 271.25 38)" fill="white" fill-opacity="0.1"/>
<rect x="275.625" y="38" width="76" height="2.375" transform="rotate(-90 275.625 38)" fill="white" fill-opacity="0.1"/>
<rect x="280" y="38" width="76" height="2.375" transform="rotate(-90 280 38)" fill="white" fill-opacity="0.1"/>
<rect x="284.375" y="38" width="76" height="2.375" transform="rotate(-90 284.375 38)" fill="white" fill-opacity="0.1"/>
<rect x="288.75" y="38" width="76" height="2.375" transform="rotate(-90 288.75 38)" fill="white" fill-opacity="0.1"/>
<rect x="293.125" y="38" width="76" height="2.375" transform="rotate(-90 293.125 38)" fill="white" fill-opacity="0.1"/>
<rect x="297.5" y="38" width="76" height="2.375" transform="rotate(-90 297.5 38)" fill="white" fill-opacity="0.1"/>
<rect x="301.875" y="38" width="76" height="2.375" transform="rotate(-90 301.875 38)" fill="white" fill-opacity="0.1"/>
<rect x="306.25" y="38" width="76" height="2.375" transform="rotate(-90 306.25 38)" fill="white" fill-opacity="0.1"/>
<rect x="310.625" y="38" width="76" height="2.375" transform="rotate(-90 310.625 38)" fill="white" fill-opacity="0.1"/>
<rect x="315" y="38" width="76" height="2.375" transform="rotate(-90 315 38)" fill="white" fill-opacity="0.1"/>
</svg>
